<?xml version="1.0" standalone="no"?>
<!DOCTYPE svg PUBLIC "-//W3C//DTD SVG 20010904//EN"
 "http://www.w3.org/TR/2001/REC-SVG-20010904/DTD/svg10.dtd">
<svg version="1.0" xmlns="http://www.w3.org/2000/svg"
 width="512.000000pt" height="512.000000pt" viewBox="0 0 512.000000 512.000000"
 preserveAspectRatio="xMidYMid meet">
<metadata>
Created by potrace 1.11, written by Peter Selinger 2001-2013
</metadata>
<g transform="translate(0.000000,512.000000) scale(0.100000,-0.100000)"
fill="#000000" stroke="none">
<path d="M2199 5063 c-54 -124 -90 -223 -87 -235 4 -19 202 -328 209 -328 3 0
6 6 6 13 0 6 21 90 47 185 25 96 43 179 39 186 -5 7 -31 40 -59 72 -29 32 -70
81 -93 107 l-41 48 -21 -48z"/>
<path d="M3107 5039 c-14 -17 -49 -57 -79 -88 -106 -113 -98 -98 -83 -166 8
-33 17 -73 20 -90 3 -16 15 -77 28 -134 l23 -105 107 151 c58 82 109 157 113
166 5 13 -91 297 -101 297 -1 0 -14 -14 -28 -31z"/>
<path d="M1469 4853 c0 -21 -2 -46 -4 -57 -2 -10 -7 -58 -10 -105 -4 -47 -9
-88 -11 -90 -3 -3 26 -29 136 -121 29 -25 58 -50 64 -55 6 -6 33 -28 60 -50
l49 -40 -8 180 c-4 99 -8 187 -8 195 0 8 -10 22 -21 30 -34 24 -236 150 -241
150 -3 0 -5 -17 -6 -37z"/>
<path d="M3683 4801 c-32 -21 -63 -40 -69 -42 -38 -17 -114 -75 -115 -88 -1
-9 -3 -32 -4 -51 -1 -19 -5 -102 -9 -183 -5 -122 -3 -146 8 -140 7 4 75 60
150 123 l137 115 -6 83 c-4 46 -8 92 -10 103 -2 11 -5 41 -6 65 -2 25 -6 47
-10 49 -3 3 -33 -13 -66 -34z"/>
<path d="M2425 4540 c-99 -154 -183 -279 -187 -277 -8 3 -87 71 -168 146 -36
33 -68 57 -72 53 -3 -4 -20 -61 -37 -127 -18 -66 -36 -134 -42 -151 l-10 -31
-237 104 c-130 57 -246 107 -257 113 -49 23 -114 50 -119 50 -3 0 -4 -28 -1
-62 2 -35 7 -115 10 -178 9 -163 14 -253 20 -342 l5 -78 -57 6 c-32 3 -71 7
-88 9 -16 2 -66 7 -109 11 -75 6 -79 6 -72 -12 4 -11 17 -44 28 -74 11 -30 26
-68 33 -85 24 -56 49 -135 44 -139 -2 -2 -58 -16 -124 -30 -222 -47 -480 -106
-497 -114 -15 -6 -13 -11 15 -44 25 -28 196 -240 264 -328 6 -8 34 -42 61 -75
l50 -61 -145 -83 c-79 -46 -141 -87 -136 -90 27 -23 83 -61 88 -61 4 0 12 -6
20 -12 7 -7 45 -33 84 -58 74 -46 79 -53 59 -74 -18 -18 -62 -67 -223 -246
-77 -85 -154 -171 -172 -190 -33 -35 -32 -47 3 -54 10 -3 100 -27 199 -54 99
-27 228 -62 287 -78 60 -16 108 -32 108 -36 0 -4 -13 -37 -30 -73 -16 -36 -30
-68 -30 -70 0 -3 -13 -31 -28 -63 -48 -98 -52 -91 41 -86 45 2 119 6 165 9
l84 5 -7 -67 c-3 -38 -10 -104 -15 -148 -10 -84 -18 -160 -25 -235 -6 -72 -15
-162 -20 -198 -3 -17 -2 -32 2 -32 4 0 143 52 310 116 167 63 307 113 312 110
5 -3 12 -27 16 -53 5 -27 9 -52 11 -58 1 -5 10 -46 19 -90 23 -106 25 -110 55
-82 47 42 221 179 224 175 4 -4 292 -501 320 -550 12 -21 23 -38 26 -38 3 0
27 35 55 78 27 42 109 169 182 280 l133 204 58 -50 c31 -28 84 -75 117 -105
37 -34 62 -51 66 -44 3 7 23 76 44 154 l38 142 31 -13 c17 -7 126 -55 241
-106 116 -51 245 -107 288 -126 l78 -34 -6 108 c-3 59 -7 139 -9 177 -3 39 -8
135 -11 215 -4 80 -9 153 -11 163 -3 20 -13 20 166 2 14 -1 54 -6 89 -10 60
-6 63 -6 56 12 -25 64 -105 274 -105 277 0 4 49 17 67 18 5 0 17 4 29 8 11 5
36 11 55 14 19 3 117 24 219 46 102 23 211 46 242 52 32 6 58 16 58 21 0 7
-74 101 -100 127 -3 3 -68 84 -145 180 -77 96 -148 184 -158 194 -10 12 -13
24 -8 29 4 4 66 41 135 81 l127 74 -130 86 c-72 47 -131 89 -131 94 1 6 19 28
119 137 86 94 326 367 329 374 1 4 -71 26 -160 50 -90 24 -183 49 -208 56 -25
7 -93 25 -151 40 -59 15 -112 31 -118 35 -9 5 6 48 48 144 34 75 61 139 61
142 0 4 -244 -2 -289 -8 -24 -3 -31 4 -27 30 3 15 7 56 11 92 3 36 8 81 10
100 5 39 11 109 20 215 3 39 8 81 10 95 11 63 15 150 8 150 -7 0 -144 -51
-188 -71 -26 -11 -438 -169 -442 -169 -2 0 -3 8 -3 18 0 20 -57 282 -62 288
-2 2 -60 -41 -128 -96 -69 -54 -125 -98 -126 -97 -3 3 -197 330 -209 352 -19
36 -137 235 -139 235 0 0 -82 -126 -181 -280z"/>
<path d="M777 4403 c-2 -4 12 -71 32 -148 l36 -140 45 -16 c25 -10 109 -42
187 -72 127 -49 141 -52 133 -33 -5 11 -36 91 -69 176 -34 85 -67 159 -74 165
-10 10 -140 44 -225 60 -13 2 -32 7 -42 10 -10 3 -20 2 -23 -2z"/>
<path d="M4340 4238 c-80 -17 -146 -31 -146 -32 -4 -4 -154 -357 -154 -361 0
-2 64 18 143 46 78 28 158 55 177 61 19 5 38 13 43 17 7 7 89 293 84 296 -1 1
-67 -11 -147 -27z"/>
<path d="M467 3833 c-1 -1 -33 -3 -70 -4 -37 -1 -70 -5 -72 -8 -2 -4 16 -40
41 -80 24 -40 44 -75 44 -76 0 -2 14 -26 31 -54 29 -45 36 -51 68 -52 20 -1
47 -2 61 -4 14 -1 70 -5 125 -9 55 -5 117 -9 139 -11 35 -4 37 -2 24 13 -8 9
-63 79 -123 155 l-107 138 -80 -3 c-43 -1 -80 -3 -81 -5z"/>
<path d="M4562 3671 c-10 -14 -67 -84 -126 -154 l-107 -128 143 6 c79 4 159 9
178 10 19 2 44 4 56 4 15 1 35 25 75 91 112 186 107 176 87 177 -15 1 -195 13
-250 17 -30 2 -40 -2 -56 -23z"/>
<path d="M275 3104 c-17 -7 -56 -24 -86 -38 -30 -13 -77 -34 -105 -44 -27 -11
-49 -24 -49 -30 0 -5 49 -50 108 -100 82 -69 113 -89 130 -85 12 3 51 13 87
23 36 10 111 30 168 45 56 15 102 30 102 34 -1 3 -38 29 -83 57 -45 28 -118
73 -162 101 -75 47 -82 49 -110 37z"/>
<path d="M4676 2893 c-92 -58 -165 -107 -163 -109 4 -4 357 -104 368 -104 3 0
44 33 91 73 46 39 100 84 118 99 l33 27 -29 11 c-16 6 -45 18 -64 27 -39 17
-51 22 -131 56 l-56 24 -167 -104z"/>
<path d="M118 2372 l-117 -97 62 -29 c34 -16 96 -43 138 -61 l76 -33 164 99
c90 55 163 102 162 106 -2 7 -33 17 -151 51 -40 12 -103 31 -140 42 -37 11
-70 20 -72 20 -3 -1 -58 -45 -122 -98z"/>
<path d="M4685 2324 c-98 -30 -181 -57 -183 -59 -3 -3 76 -52 253 -155 l80
-46 133 62 c73 34 135 64 138 67 6 5 -222 187 -234 186 -4 0 -88 -25 -187 -55z"/>
<path d="M727 1684 c-1 -1 -47 -5 -102 -9 -55 -4 -122 -9 -149 -10 -27 -2 -55
-10 -61 -17 -7 -7 -44 -68 -83 -135 l-71 -123 37 -1 c55 -1 161 -7 216 -12
l47 -5 116 147 c64 80 120 152 126 159 8 10 2 12 -32 11 -23 -2 -43 -4 -44 -5z"/>
<path d="M4331 1588 c69 -82 83 -100 94 -112 6 -6 34 -40 64 -74 l55 -64 55 6
c31 3 90 8 131 12 41 4 82 8 90 10 8 1 18 3 22 3 7 1 -125 215 -147 240 -15
15 -30 17 -249 25 l-158 7 43 -53z"/>
<path d="M1065 1126 c-55 -24 -120 -52 -145 -63 -25 -11 -59 -25 -75 -32 -17
-6 -31 -19 -32 -29 -2 -19 -3 -23 -33 -170 -12 -57 -20 -106 -17 -108 3 -3 66
12 142 32 102 28 139 43 147 57 6 11 34 88 63 171 29 83 56 159 60 169 10 23
5 22 -110 -27z"/>
<path d="M3989 1018 c98 -240 88 -226 186 -243 25 -4 121 -24 188 -40 9 -2 17
1 17 7 0 12 -69 268 -75 278 -2 3 -71 30 -152 59 -81 29 -162 60 -180 67 -17
8 -33 14 -36 14 -3 0 20 -64 52 -142z"/>
<path d="M1644 762 c-120 -109 -209 -188 -225 -200 -17 -12 -19 -55 -5 -138 2
-11 7 -52 11 -90 4 -38 10 -75 14 -81 5 -9 44 12 129 69 l122 82 1 91 c0 49 1
136 3 193 1 57 0 105 -3 107 -4 2 -24 -13 -47 -33z"/>
<path d="M3372 774 c5 -8 23 -328 21 -374 -1 -8 31 -35 71 -59 39 -24 94 -59
123 -78 61 -39 73 -41 74 -10 0 12 2 31 3 42 2 11 6 63 11 115 4 52 9 98 11
101 2 3 -60 60 -138 125 -152 127 -185 153 -176 138z"/>
<path d="M2145 463 c-55 -91 -98 -172 -97 -181 2 -9 30 -75 62 -145 l57 -129
96 118 c52 64 94 122 91 128 -2 6 -26 92 -54 191 -29 99 -52 181 -53 182 -1 1
-47 -73 -102 -164z"/>
<path d="M2856 603 c-4 -18 -40 -166 -70 -296 l-16 -68 42 -46 c24 -25 71 -76
105 -112 71 -76 55 -89 126 99 l44 115 -69 100 c-38 55 -87 128 -109 163 -23
34 -42 62 -44 62 -2 0 -6 -8 -9 -17z"/>
</g>
</svg>
